999
dxflib 3.26.4.0
  0
SECTION
  2
HEADER
  9
$ACADVER
  1
AC1015
  9
$HANDSEED
  5
FFFF
  9
$DIMADEC
 70
2
  9
$DIMASZ
 40
2.5
  9
$DIMATFIT
 70
0
  9
$DIMAUNIT
 70
0
  9
$DIMAZIN
 70
2
  9
$DIMBLK
  1
0
  9
$DIMBLK1
  1
0
  9
$DIMBLK2
  1
0
  9
$DIMDEC
 70
4
  9
$DIMDLI
 40
5.0
  9
$DIMDSEP
 70
46
  9
$DIMEXE
 40
1.25
  9
$DIMEXO
 40
0.625
  9
$DIMGAP
 40
0.625
  9
$DIMLFAC
 40
1.0
  9
$DIMLUNIT
 70
2
  9
$DIMSCALE
 40
1.0
  9
$DIMTAD
 70
1
  9
$DIMTIH
 70
0
  9
$DIMTSZ
 40
0.0
  9
$DIMTXT
 40
2.5
  9
$DIMZIN
 70
8
  9
$DWGCODEPAGE
  3
ANSI_1252
  9
$INSUNITS
 70
4
  9
$LTSCALE
 40
1.0
  9
$MAXACTVP
 70
64
  9
$MEASUREMENT
 70
1
  9
$MIRRTEXT
 70
0
  9
$PDMODE
 70
0
  9
$PDSIZE
 40
0.0
  0
ENDSEC
  0
SECTION
  2
TABLES
  0
TABLE
  2
VPORT
  5
8
100
AcDbSymbolTable
 70
1
  0
VPORT
  5
30
100
AcDbSymbolTableRecord
100
AcDbViewportTableRecord
  2
*Active
 70
0
 10
0.0
 20
0.0
 11
1.0
 21
1.0
 12
286.3055555555554861
 22
148.5
 13
0.0
 23
0.0
 14
10.0
 24
10.0
 15
10.0
 25
10.0
 16
0.0
 26
0.0
 36
1.0
 17
0.0
 27
0.0
 37
0.0
 40
297.0
 41
1.92798353909465
 42
50.0
 43
0.0
 44
0.0
 50
0.0
 51
0.0
 71
0
 72
100
 73
1
 74
3
 75
1
 76
1
 77
0
 78
0
281
0
 65
1
110
0.0
120
0.0
130
0.0
111
1.0
121
0.0
131
0.0
112
0.0
122
1.0
132
0.0
 79
0
146
0.0
  0
ENDTAB
  0
TABLE
  2
LTYPE
  5
5
100
AcDbSymbolTable
 70
41
  0
LTYPE
  5
16
100
AcDbSymbolTableRecord
100
AcDbLinetypeTableRecord
  2
Continuous
 70
0
  3
Solid line
 72
65
 73
0
 40
0.0
  0
LTYPE
  5
31
100
AcDbSymbolTableRecord
100
AcDbLinetypeTableRecord
  2
HIDDEN
 70
0
  3
Hidden __ __ __ __ __ __ __ __ __ __ __ __ __ __
 72
65
 73
2
 40
9.5249999999999986
 49
6.3499999999999996
 74
0
 49
-3.1749999999999998
 74
0
  0
LTYPE
  5
32
100
AcDbSymbolTableRecord
100
AcDbLinetypeTableRecord
  2
DIVIDE2
 70
0
  3
Divide (.5x) __..__..__..__..__..__..__..__.._
 72
65
 73
6
 40
15.8749999999999982
 49
6.3499999999999996
 74
0
 49
-3.125
 74
0
 49
0.1
 74
0
 49
-3.0750000000000002
 74
0
 49
0.1
 74
0
 49
-3.125
 74
0
  0
LTYPE
  5
33
100
AcDbSymbolTableRecord
100
AcDbLinetypeTableRecord
  2
CENTER
 70
0
  3
Center ____ _ ____ _ ____ _ ____ _ ____ _ ____
 72
65
 73
4
 40
50.8000000000000043
 49
31.75
 74
0
 49
-6.3499999999999996
 74
0
 49
6.3499999999999996
 74
0
 49
-6.3499999999999996
 74
0
  0
LTYPE
  5
34
100
AcDbSymbolTableRecord
100
AcDbLinetypeTableRecord
  2
ACAD_ISO09W100
 70
0
  3
ISO long-dash double-short-dash ____ __ __ ____
 72
65
 73
6
 40
45.0
 49
24.0
 74
0
 49
-3.0
 74
0
 49
6.0
 74
0
 49
-3.0
 74
0
 49
6.0
 74
0
 49
-3.0
 74
0
  0
LTYPE
  5
35
100
AcDbSymbolTableRecord
100
AcDbLinetypeTableRecord
  2
PHANTOM
 70
0
  3
Phantom ______  __  __  ______  __  __  ______ 
 72
65
 73
6
 40
63.5000000000000071
 49
31.75
 74
0
 49
-6.3499999999999996
 74
0
 49
6.3499999999999996
 74
0
 49
-6.3499999999999996
 74
0
 49
6.3499999999999996
 74
0
 49
-6.3499999999999996
 74
0
  0
LTYPE
  5
15
100
AcDbSymbolTableRecord
100
AcDbLinetypeTableRecord
  2
BYLAYER
 70
0
  3

 72
65
 73
0
 40
0.0
  0
LTYPE
  5
36
100
AcDbSymbolTableRecord
100
AcDbLinetypeTableRecord
  2
DOTX2
 70
0
  3
Dot (2x) .  .  .  .  .  .  .  .  .  .  .  .  .  .
 72
65
 73
2
 40
12.6999999999999993
 49
0.1
 74
0
 49
-12.5999999999999996
 74
0
  0
LTYPE
  5
37
100
AcDbSymbolTableRecord
100
AcDbLinetypeTableRecord
  2
DASHED
 70
0
  3
Dashed __ __ __ __ __ __ __ __ __ __ __ __ __ _
 72
65
 73
2
 40
19.0499999999999972
 49
12.6999999999999993
 74
0
 49
-6.3499999999999996
 74
0
  0
LTYPE
  5
38
100
AcDbSymbolTableRecord
100
AcDbLinetypeTableRecord
  2
ACAD_ISO03W100
 70
0
  3
ISO dash space __    __    __    __    __    __
 72
65
 73
2
 40
30.0
 49
12.0
 74
0
 49
-18.0
 74
0
  0
LTYPE
  5
39
100
AcDbSymbolTableRecord
100
AcDbLinetypeTableRecord
  2
DIVIDE
 70
0
  3
Divide ____ . . ____ . . ____ . . ____ . . ____
 72
65
 73
6
 40
31.7500000000000036
 49
12.6999999999999993
 74
0
 49
-6.2999999999999998
 74
0
 49
0.1
 74
0
 49
-6.25
 74
0
 49
0.1
 74
0
 49
-6.2999999999999998
 74
0
  0
LTYPE
  5
3A
100
AcDbSymbolTableRecord
100
AcDbLinetypeTableRecord
  2
PHANTOMX2
 70
0
  3
Phantom (2x) ____________    ____    ____   _
 72
65
 73
6
 40
127.0000000000000142
 49
63.5
 74
0
 49
-12.6999999999999993
 74
0
 49
12.6999999999999993
 74
0
 49
-12.6999999999999993
 74
0
 49
12.6999999999999993
 74
0
 49
-12.6999999999999993
 74
0
  0
LTYPE
  5
3B
100
AcDbSymbolTableRecord
100
AcDbLinetypeTableRecord
  2
DOT2
 70
0
  3
Dot (.5x) ........................................
 72
65
 73
2
 40
3.1749999999999998
 49
0.1
 74
0
 49
-3.0749999999999997
 74
0
  0
LTYPE
  5
3C
100
AcDbSymbolTableRecord
100
AcDbLinetypeTableRecord
  2
ACAD_ISO13W100
 70
0
  3
ISO double-dash double-dot __ __ . . __ __ . . _
 72
65
 73
8
 40
36.0000000000000071
 49
12.0
 74
0
 49
-3.0
 74
0
 49
12.0
 74
0
 49
-2.9500000000000002
 74
0
 49
0.1
 74
0
 49
-2.9000000000000004
 74
0
 49
0.1
 74
0
 49
-2.9500000000000002
 74
0
  0
LTYPE
  5
3D
100
AcDbSymbolTableRecord
100
AcDbLinetypeTableRecord
  2
DOT
 70
0
  3
Dot . . . . . . . . . . . . . . . . . . . . . . . .
 72
65
 73
2
 40
6.3499999999999996
 49
0.1
 74
0
 49
-6.25
 74
0
  0
LTYPE
  5
3E
100
AcDbSymbolTableRecord
100
AcDbLinetypeTableRecord
  2
DIVIDEX2
 70
0
  3
Divide (2x) ________  .  .  ________  .  .  _
 72
65
 73
6
 40
63.5
 49
25.3999999999999986
 74
0
 49
-12.6499999999999986
 74
0
 49
0.1
 74
0
 49
-12.5999999999999979
 74
0
 49
0.1
 74
0
 49
-12.6499999999999986
 74
0
  0
LTYPE
  5
3F
100
AcDbSymbolTableRecord
100
AcDbLinetypeTableRecord
  2
ACAD_ISO08W100
 70
0
  3
ISO long-dash short-dash ____ __ ____ __ ____ _
 72
65
 73
4
 40
36.0
 49
24.0
 74
0
 49
-3.0
 74
0
 49
6.0
 74
0
 49
-3.0
 74
0
  0
LTYPE
  5
40
100
AcDbSymbolTableRecord
100
AcDbLinetypeTableRecord
  2
ACAD_ISO15W100
 70
0
  3
ISO double-dash triple-dot __ __ . . . __ __ . .
 72
65
 73
10
 40
39.0000000000000071
 49
12.0
 74
0
 49
-3.0
 74
0
 49
12.0
 74
0
 49
-2.9500000000000002
 74
0
 49
0.1
 74
0
 49
-2.9000000000000004
 74
0
 49
0.1
 74
0
 49
-2.9000000000000004
 74
0
 49
0.1
 74
0
 49
-2.9500000000000002
 74
0
  0
LTYPE
  5
41
100
AcDbSymbolTableRecord
100
AcDbLinetypeTableRecord
  2
ACAD_ISO02W100
 70
0
  3
ISO dash __ __ __ __ __ __ __ __ __ __ __ __ __
 72
65
 73
2
 40
15.0
 49
12.0
 74
0
 49
-3.0
 74
0
  0
LTYPE
  5
42
100
AcDbSymbolTableRecord
100
AcDbLinetypeTableRecord
  2
ACAD_ISO14W100
 70
0
  3
ISO dash triple-dot __ . . . __ . . . __ . . . _
 72
65
 73
8
 40
24.0000000000000036
 49
12.0
 74
0
 49
-2.9500000000000002
 74
0
 49
0.1
 74
0
 49
-2.9000000000000004
 74
0
 49
0.1
 74
0
 49
-2.9000000000000004
 74
0
 49
0.1
 74
0
 49
-2.9500000000000002
 74
0
  0
LTYPE
  5
43
100
AcDbSymbolTableRecord
100
AcDbLinetypeTableRecord
  2
DASHDOT2
 70
0
  3
Dash dot (.5x) _._._._._._._._._._._._._._._.
 72
65
 73
4
 40
12.6999999999999993
 49
6.3499999999999996
 74
0
 49
-3.125
 74
0
 49
0.1
 74
0
 49
-3.125
 74
0
  0
LTYPE
  5
44
100
AcDbSymbolTableRecord
100
AcDbLinetypeTableRecord
  2
BORDER
 70
0
  3
Border __ __ . __ __ . __ __ . __ __ . __ __ .
 72
65
 73
6
 40
44.4499999999999957
 49
12.6999999999999993
 74
0
 49
-6.3499999999999996
 74
0
 49
12.6999999999999993
 74
0
 49
-6.2999999999999998
 74
0
 49
0.1
 74
0
 49
-6.2999999999999998
 74
0
  0
LTYPE
  5
45
100
AcDbSymbolTableRecord
100
AcDbLinetypeTableRecord
  2
PHANTOM2
 70
0
  3
Phantom (.5x) ___ _ _ ___ _ _ ___ _ _ ___ _ _
 72
65
 73
6
 40
31.7500000000000036
 49
15.875
 74
0
 49
-3.1749999999999998
 74
0
 49
3.1749999999999998
 74
0
 49
-3.1749999999999998
 74
0
 49
3.1749999999999998
 74
0
 49
-3.1749999999999998
 74
0
  0
LTYPE
  5
46
100
AcDbSymbolTableRecord
100
AcDbLinetypeTableRecord
  2
ACAD_ISO04W100
 70
0
  3
ISO long-dash dot ____ . ____ . ____ . ____ . _
 72
65
 73
4
 40
30.0
 49
24.0
 74
0
 49
-2.9500000000000002
 74
0
 49
0.1
 74
0
 49
-2.9500000000000002
 74
0
  0
LTYPE
  5
47
100
AcDbSymbolTableRecord
100
AcDbLinetypeTableRecord
  2
ACAD_ISO12W100
 70
0
  3
ISO dash double-dot __ . . __ . . __ . . __ . . 
 72
65
 73
6
 40
21.0
 49
12.0
 74
0
 49
-2.9500000000000002
 74
0
 49
0.1
 74
0
 49
-2.9000000000000004
 74
0
 49
0.1
 74
0
 49
-2.9500000000000002
 74
0
  0
LTYPE
  5
48
100
AcDbSymbolTableRecord
100
AcDbLinetypeTableRecord
  2
HIDDENX2
 70
0
  3
Hidden (2x) ____ ____ ____ ____ ____ ____ ____ 
 72
65
 73
2
 40
19.0499999999999972
 49
12.6999999999999993
 74
0
 49
-6.3499999999999996
 74
0
  0
LTYPE
  5
49
100
AcDbSymbolTableRecord
100
AcDbLinetypeTableRecord
  2
DASHED2
 70
0
  3
Dashed (.5x) _ _ _ _ _ _ _ _ _ _ _ _ _ _ _ _ _ 
 72
65
 73
2
 40
9.5249999999999986
 49
6.3499999999999996
 74
0
 49
-3.1749999999999998
 74
0
  0
LTYPE
  5
4A
100
AcDbSymbolTableRecord
100
AcDbLinetypeTableRecord
  2
ACAD_ISO07W100
 70
0
  3
ISO dot . . . . . . . . . . . . . . . . . . . . 
 72
65
 73
2
 40
3.0
 49
0.1
 74
0
 49
-2.8999999999999999
 74
0
  0
LTYPE
  5
4B
100
AcDbSymbolTableRecord
100
AcDbLinetypeTableRecord
  2
CENTER2
 70
0
  3
Center (.5x) ___ _ ___ _ ___ _ ___ _ ___ _ ___
 72
65
 73
4
 40
28.5750000000000028
 49
19.0500000000000007
 74
0
 49
-3.1749999999999998
 74
0
 49
3.1749999999999998
 74
0
 49
-3.1749999999999998
 74
0
  0
LTYPE
  5
4C
100
AcDbSymbolTableRecord
100
AcDbLinetypeTableRecord
  2
ACAD_ISO05W100
 70
0
  3
ISO long-dash double-dot ____ .. ____ .. ____ . 
 72
65
 73
6
 40
33.0000000000000071
 49
24.0
 74
0
 49
-2.9500000000000002
 74
0
 49
0.1
 74
0
 49
-2.9000000000000004
 74
0
 49
0.1
 74
0
 49
-2.9500000000000002
 74
0
  0
LTYPE
  5
4D
100
AcDbSymbolTableRecord
100
AcDbLinetypeTableRecord
  2
BORDER2
 70
0
  3
Border (.5x) __.__.__.__.__.__.__.__.__.__.__.
 72
65
 73
6
 40
22.2250000000000014
 49
6.3499999999999996
 74
0
 49
-3.1749999999999998
 74
0
 49
6.3499999999999996
 74
0
 49
-3.125
 74
0
 49
0.1
 74
0
 49
-3.125
 74
0
  0
LTYPE
  5
4E
100
AcDbSymbolTableRecord
100
AcDbLinetypeTableRecord
  2
DASHDOT
 70
0
  3
Dash dot __ . __ . __ . __ . __ . __ . __ . __
 72
65
 73
4
 40
25.4000000000000021
 49
12.6999999999999993
 74
0
 49
-6.2999999999999998
 74
0
 49
0.1
 74
0
 49
-6.2999999999999998
 74
0
  0
LTYPE
  5
4F
100
AcDbSymbolTableRecord
100
AcDbLinetypeTableRecord
  2
DASHDOTX2
 70
0
  3
Dash dot (2x) ____  .  ____  .  ____  .  ___
 72
65
 73
4
 40
50.7999999999999972
 49
25.3999999999999986
 74
0
 49
-12.6499999999999986
 74
0
 49
0.1
 74
0
 49
-12.6499999999999986
 74
0
  0
LTYPE
  5
50
100
AcDbSymbolTableRecord
100
AcDbLinetypeTableRecord
  2
ACAD_ISO11W100
 70
0
  3
ISO double-dash dot __ __ . __ __ . __ __ . __ _
 72
65
 73
6
 40
33.0
 49
12.0
 74
0
 49
-3.0
 74
0
 49
12.0
 74
0
 49
-2.9500000000000002
 74
0
 49
0.1
 74
0
 49
-2.9500000000000002
 74
0
  0
LTYPE
  5
51
100
AcDbSymbolTableRecord
100
AcDbLinetypeTableRecord
  2
DASHEDX2
 70
0
  3
Dashed (2x) ____  ____  ____  ____  ____  ___
 72
65
 73
2
 40
38.0999999999999943
 49
25.3999999999999986
 74
0
 49
-12.6999999999999993
 74
0
  0
LTYPE
  5
14
100
AcDbSymbolTableRecord
100
AcDbLinetypeTableRecord
  2
BYBLOCK
 70
0
  3

 72
65
 73
0
 40
0.0
  0
LTYPE
  5
52
100
AcDbSymbolTableRecord
100
AcDbLinetypeTableRecord
  2
HIDDEN2
 70
0
  3
Hidden (.5x) _ _ _ _ _ _ _ _ _ _ _ _ _ _ _ _ _ 
 72
65
 73
2
 40
4.7624999999999993
 49
3.1749999999999998
 74
0
 49
-1.5874999999999999
 74
0
  0
LTYPE
  5
53
100
AcDbSymbolTableRecord
100
AcDbLinetypeTableRecord
  2
ACAD_ISO10W100
 70
0
  3
ISO dash dot __ . __ . __ . __ . __ . __ . __ . 
 72
65
 73
4
 40
18.0
 49
12.0
 74
0
 49
-2.9500000000000002
 74
0
 49
0.1
 74
0
 49
-2.9500000000000002
 74
0
  0
LTYPE
  5
54
100
AcDbSymbolTableRecord
100
AcDbLinetypeTableRecord
  2
ACAD_ISO06W100
 70
0
  3
ISO long-dash triple-dot ____ ... ____ ... ____
 72
65
 73
8
 40
36.0000000000000071
 49
24.0
 74
0
 49
-2.9500000000000002
 74
0
 49
0.1
 74
0
 49
-2.9000000000000004
 74
0
 49
0.1
 74
0
 49
-2.9000000000000004
 74
0
 49
0.1
 74
0
 49
-2.9500000000000002
 74
0
  0
LTYPE
  5
55
100
AcDbSymbolTableRecord
100
AcDbLinetypeTableRecord
  2
CENTERX2
 70
0
  3
Center (2x) ________  __  ________  __  _____
 72
65
 73
4
 40
101.6000000000000085
 49
63.5
 74
0
 49
-12.6999999999999993
 74
0
 49
12.6999999999999993
 74
0
 49
-12.6999999999999993
 74
0
  0
LTYPE
  5
56
100
AcDbSymbolTableRecord
100
AcDbLinetypeTableRecord
  2
BORDERX2
 70
0
  3
Border (2x) ____  ____  .  ____  ____  .  ___
 72
65
 73
6
 40
88.8999999999999773
 49
25.3999999999999986
 74
0
 49
-12.6999999999999993
 74
0
 49
25.3999999999999986
 74
0
 49
-12.6499999999999986
 74
0
 49
0.1
 74
0
 49
-12.6499999999999986
 74
0
  0
ENDTAB
  0
TABLE
  2
LAYER
  5
2
100
AcDbSymbolTable
 70
5
  0
LAYER
  5
10
100
AcDbSymbolTableRecord
100
AcDbLayerTableRecord
  2
0
 70
0
 62
7
420
16777215
  6
Continuous
370
25
390
F
  0
LAYER
  5
57
100
AcDbSymbolTableRecord
100
AcDbLayerTableRecord
  2
Ejes
 70
0
 62
1
420
16711680
  6
CENTER
370
25
390
F
  0
LAYER
  5
58
100
AcDbSymbolTableRecord
100
AcDbLayerTableRecord
  2
Cotas
 70
0
 62
2
420
16776960
  6
Continuous
370
25
390
F
  0
LAYER
  5
59
100
AcDbSymbolTableRecord
100
AcDbLayerTableRecord
  2
Ocultas
 70
0
 62
3
420
65280
  6
ACAD_ISO02W100
370
50
390
F
  0
LAYER
  5
5A
100
AcDbSymbolTableRecord
100
AcDbLayerTableRecord
  2
Contornos
 70
0
 62
4
420
65535
  6
Continuous
370
50
390
F
  0
ENDTAB
  0
TABLE
  2
STYLE
  5
3
100
AcDbSymbolTable
 70
3
  0
STYLE
  5
5B
100
AcDbSymbolTableRecord
100
AcDbTextStyleTableRecord
  2
Standard
 70
0
 40
0.0
 41
1.0
 50
0.0
 71
0
 42
2.5
  3

  4

1001
ACAD
1000
txt
1071
0
  0
STYLE
  5
5C
100
AcDbSymbolTableRecord
100
AcDbTextStyleTableRecord
  2
textstyle0
 70
0
 40
0.0
 41
1.0
 50
0.0
 71
0
 42
2.5
  3

  4

1001
ACAD
1000
Arial
1071
0
  0
STYLE
  5
5D
100
AcDbSymbolTableRecord
100
AcDbTextStyleTableRecord
  2
textstyle1
 70
0
 40
0.0
 41
1.0
 50
0.0
 71
0
 42
2.5
  3

  4

1001
ACAD
1000
Arial
1071
0
  0
ENDTAB
  0
TABLE
  2
VIEW
  5
6
100
AcDbSymbolTable
 70
0
  0
ENDTAB
  0
TABLE
  2
UCS
  5
7
100
AcDbSymbolTable
 70
0
  0
ENDTAB
  0
TABLE
  2
APPID
  5
9
100
AcDbSymbolTable
 70
1
  0
APPID
  5
12
100
AcDbSymbolTableRecord
100
AcDbRegAppTableRecord
  2
ACAD
 70
0
  0
APPID
  5
5E
100
AcDbSymbolTableRecord
100
AcDbRegAppTableRecord
  2
QCAD
 70
0
  0
ENDTAB
  0
TABLE
  2
DIMSTYLE
  5
A
100
AcDbSymbolTable
 70
1
100
AcDbDimStyleTable
 71
0
  0
DIMSTYLE
105
27
100
AcDbSymbolTableRecord
100
AcDbDimStyleTableRecord
  2
Standard
 41
2.5
 42
0.625
 43
3.75
 44
1.25
 70
0
 73
0
 74
0
 77
1
 78
8
140
2.5
141
2.5
143
0.03937007874016
147
0.625
171
3
172
1
271
2
272
2
274
3
278
44
283
0
284
8
340
5B
  0
ENDTAB
  0
TABLE
  2
BLOCK_RECORD
  5
1
100
AcDbSymbolTable
 70
1
  0
BLOCK_RECORD
  5
1F
100
AcDbSymbolTableRecord
100
AcDbBlockTableRecord
  2
*Model_Space
340
22
  0
BLOCK_RECORD
  5
1B
100
AcDbSymbolTableRecord
100
AcDbBlockTableRecord
  2
*Paper_Space
340
1E
  0
BLOCK_RECORD
  5
23
100
AcDbSymbolTableRecord
100
AcDbBlockTableRecord
  2
*Paper_Space0
340
26
  0
ENDTAB
  0
ENDSEC
  0
SECTION
  2
BLOCKS
  0
BLOCK
  5
20
100
AcDbEntity
  8
0
100
AcDbBlockBegin
  2
*Model_Space
 70
0
 10
0.0
 20
0.0
 30
0.0
  3
*Model_Space
  1

  0
ENDBLK
  5
21
100
AcDbEntity
  8
0
100
AcDbBlockEnd
  0
BLOCK
  5
1C
100
AcDbEntity
 67
1
  8
0
100
AcDbBlockBegin
  2
*Paper_Space
 70
0
 10
0.0
 20
0.0
 30
0.0
  3
*Paper_Space
  1

  0
ENDBLK
  5
1D
100
AcDbEntity
 67
1
  8
0
100
AcDbBlockEnd
  0
BLOCK
  5
24
100
AcDbEntity
  8
0
100
AcDbBlockBegin
  2
*Paper_Space0
 70
0
 10
0.0
 20
0.0
 30
0.0
  3
*Paper_Space0
  1

  0
ENDBLK
  5
25
100
AcDbEntity
  8
0
100
AcDbBlockEnd
  0
ENDSEC
  0
SECTION
  2
ENTITIES
  0
LINE
  5
5F
100
AcDbEntity
  8
Contornos
 62
256
370
-1
 48
1.0
  6
BYLAYER
100
AcDbLine
 10
-105.5063245463471873
 20
-156.3503409601267435
 30
0.0
 11
-99.9219443052322589
 21
-156.3503409601267435
 31
0.0
  0
LINE
  5
60
100
AcDbEntity
  8
Contornos
 62
256
370
-1
 48
1.0
  6
BYLAYER
100
AcDbLine
 10
65.9092952125377138
 20
-156.3503409601267435
 30
0.0
 11
71.4936754536527843
 21
-156.3503409601267435
 31
0.0
  0
LINE
  5
61
100
AcDbEntity
  8
Ejes
 62
256
370
-1
 48
1.0
  6
BYLAYER
100
AcDbLine
 10
-17.0063245463472121
 20
91.2496590398732508
 30
0.0
 11
-17.0063245463472121
 21
-372.707672052709313
 31
0.0
  0
LINE
  5
62
100
AcDbEntity
  8
Contornos
 62
256
370
-1
 48
1.0
  6
BYLAYER
100
AcDbLine
 10
-49.5553016396744255
 20
32.5371468089073019
 30
0.0
 11
-52.4317608442789407
 21
33.3891928430190674
 31
0.0
  0
LINE
  5
63
100
AcDbEntity
  8
Contornos
 62
256
370
-1
 48
1.0
  6
BYLAYER
100
AcDbLine
 10
-70.6493358067746584
 20
38.7854843923936201
 30
0.0
 11
-73.5257950113791736
 21
39.6375304265053856
 31
0.0
  0
LINE
  5
64
100
AcDbEntity
  8
Contornos
 62
256
370
-1
 48
1.0
  6
BYLAYER
100
AcDbLine
 10
15.542652546980225
 20
32.5371468089073588
 30
0.0
 11
18.419111751584655
 21
33.3891928430190674
 31
0.0
  0
LINE
  5
65
100
AcDbEntity
  8
Contornos
 62
256
370
-1
 48
1.0
  6
BYLAYER
100
AcDbLine
 10
36.636686714080227
 20
38.7854843923935633
 30
0.0
 11
39.5131459186849412
 21
39.6375304265053856
 31
0.0
  0
LINE
  5
66
100
AcDbEntity
  8
Contornos
 62
256
370
-1
 48
1.0
  6
BYLAYER
100
AcDbLine
 10
-159.5897093851485238
 20
-338.9327882781492463
 30
0.0
 11
-49.5553016396743686
 21
32.5371468089073019
 31
0.0
  0
LINE
  5
67
100
AcDbEntity
  8
Contornos
 62
256
370
-1
 48
1.0
  6
BYLAYER
100
AcDbLine
 10
125.6214276102936935
 20
-339.0825698329880993
 30
0.0
 11
15.5426525469799977
 21
32.5371468089073588
 31
0.0
  0
CIRCLE
  5
68
100
AcDbEntity
  8
Contornos
 62
256
370
-1
 48
1.0
  6
BYLAYER
100
AcDbCircle
 10
-17.0063245463472121
 20
61.6496590398732351
 30
0.0
 40
20.5
  0
CIRCLE
  5
69
100
AcDbEntity
  8
Contornos
 62
256
370
-1
 48
1.0
  6
BYLAYER
100
AcDbCircle
 10
-51.0063245463472157
 20
61.6496590398732351
 30
0.0
 40
5.4999999999999858
  0
CIRCLE
  5
6A
100
AcDbEntity
  8
Contornos
 62
256
370
-1
 48
1.0
  6
BYLAYER
100
AcDbCircle
 10
16.9936754536527879
 20
61.6496590398732351
 30
0.0
 40
5.5
  0
ARC
  5
6B
100
AcDbEntity
  8
Contornos
 62
256
370
-1
 48
1.0
  6
BYLAYER
100
AcDbCircle
 10
-17.006324546347269
 20
-186.3503409601267435
 30
0.0
 40
85.0
100
AcDbArc
 50
22.8853804761585629
 51
157.1146195238414123
  0
LINE
  5
6C
100
AcDbEntity
  8
Contornos
 62
256
370
-1
 48
1.0
  6
BYLAYER
100
AcDbLine
 10
-73.525795011379202
 20
39.6375304265053856
 30
0.0
 11
-65.6103527350746418
 21
66.3596157160965561
 31
0.0
  0
LINE
  5
6D
100
AcDbEntity
  8
Contornos
 62
256
370
-1
 48
1.0
  6
BYLAYER
100
AcDbLine
 10
39.5131459186848844
 20
39.6375304265053856
 30
0.0
 11
31.5977036423802993
 21
66.3596157160964992
 31
0.0
  0
ARC
  5
6E
100
AcDbEntity
  8
Contornos
 62
256
370
-1
 48
1.0
  6
BYLAYER
100
AcDbCircle
 10
-99.9219443052322589
 20
-151.3503409601267435
 30
0.0
 40
5.0
100
AcDbArc
 50
270.0
 51
337.1146195238415544
  0
ARC
  5
6F
100
AcDbEntity
  8
Contornos
 62
256
370
-1
 48
1.0
  6
BYLAYER
100
AcDbCircle
 10
65.9092952125377138
 20
-151.3503409601267435
 30
0.0
 40
5.0
100
AcDbArc
 50
202.8853804761585309
 51
270.0
  0
LINE
  5
70
100
AcDbEntity
  8
Contornos
 62
256
370
-1
 48
1.0
  6
BYLAYER
100
AcDbLine
 10
-56.587103636982178
 20
76.1094039629557813
 30
0.0
 11
-26.8312439087197099
 21
87.4914766929354926
 31
0.0
  0
LINE
  5
71
100
AcDbEntity
  8
Contornos
 62
256
370
-1
 48
1.0
  6
BYLAYER
100
AcDbLine
 10
-7.1814051839745439
 20
87.4914766929354357
 30
0.0
 11
22.5744545442879208
 21
76.1094039629556107
 31
0.0
  0
ARC
  5
72
100
AcDbEntity
  8
Contornos
 62
256
370
-1
 48
1.0
  6
BYLAYER
100
AcDbCircle
 10
-17.0063245463471553
 20
61.8064429276690603
 30
0.0
 40
27.5
100
AcDbArc
 50
69.0673808436347656
 51
110.9326191563650781
  0
LINE
  5
73
100
AcDbEntity
  8
Contornos
 62
256
370
-1
 48
1.0
  6
BYLAYER
100
AcDbLine
 10
2.2964196394513756
 20
13.0549227956827636
 30
0.0
 11
10.0128014555583214
 21
-13.2936980398043474
 31
0.0
  0
LINE
  5
74
100
AcDbEntity
  8
Contornos
 62
256
370
-1
 48
1.0
  6
BYLAYER
100
AcDbLine
 10
-43.6304973035744155
 20
-11.9450772043172364
 30
0.0
 11
-36.3090687321458603
 21
13.0549227956827067
 31
0.0
  0
ARC
  5
75
100
AcDbEntity
  8
Contornos
 62
256
370
-1
 48
1.0
  6
BYLAYER
100
AcDbCircle
 10
-31.5106071269427552
 20
11.6496590398732351
 30
0.0
 40
5.0
100
AcDbArc
 50
90.0
 51
163.6769537709440669
  0
ARC
  5
76
100
AcDbEntity
  8
Contornos
 62
256
370
-1
 48
1.0
  6
BYLAYER
100
AcDbCircle
 10
-2.5020419657516122
 20
11.649659039873292
 30
0.0
 40
5.0
100
AcDbArc
 50
16.3230462290563025
 51
90.0
  0
ARC
  5
77
100
AcDbEntity
  8
Contornos
 62
256
370
-1
 48
1.0
  6
BYLAYER
100
AcDbCircle
 10
-38.8320356983712571
 20
-13.3503409601267649
 30
0.0
 40
5.0
100
AcDbArc
 50
163.6769537709442659
 51
270.0
  0
ARC
  5
78
100
AcDbEntity
  8
Contornos
 62
256
370
-1
 48
1.0
  6
BYLAYER
100
AcDbCircle
 10
4.819386605676943
 20
-13.3503409601267649
 30
0.0
 40
5.0
100
AcDbArc
 50
270.0
 51
16.3230462290561
  0
LINE
  5
79
100
AcDbEntity
  8
Contornos
 62
256
370
-1
 48
1.0
  6
BYLAYER
100
AcDbLine
 10
-31.5106071269427552
 20
16.6496590398732351
 30
0.0
 11
-2.5020419657516122
 21
16.649659039873292
 31
0.0
  0
LINE
  5
7A
100
AcDbEntity
  8
Contornos
 62
256
370
-1
 48
1.0
  6
BYLAYER
100
AcDbLine
 10
-38.8320356983712571
 20
-18.3503409601267649
 30
0.0
 11
4.819386605676943
 21
-18.3503409601267649
 31
0.0
  0
ARC
  5
7B
100
AcDbEntity
  8
Contornos
 62
256
370
-1
 48
1.0
  6
BYLAYER
100
AcDbCircle
 10
-51.2280567120516963
 20
62.0993855455377357
 30
0.0
 40
15.0
100
AcDbArc
 50
110.9326191563650781
 51
163.5000000000001137
  0
ARC
  5
7C
100
AcDbEntity
  8
Contornos
 62
256
370
-1
 48
1.0
  6
BYLAYER
100
AcDbCircle
 10
17.2154076193574106
 20
62.0993855455376789
 30
0.0
 40
15.0
100
AcDbArc
 50
16.4999999999999574
 51
69.0673808436346661
  0
LINE
  5
7D
100
AcDbEntity
  8
Contornos
 62
256
370
-1
 48
1.0
  6
BYLAYER
100
AcDbLine
 10
-70.64933580677463
 20
38.785484392393613
 30
0.0
 11
-52.4317608442789407
 21
33.3891928430190674
 31
0.0
  0
LINE
  5
7E
100
AcDbEntity
  8
Contornos
 62
256
370
-1
 48
1.0
  6
BYLAYER
100
AcDbLine
 10
-49.5553016396743544
 20
32.5371468089072735
 30
0.0
 11
15.5426525469800154
 21
32.5371468089073019
 31
0.0
  0
LINE
  5
7F
100
AcDbEntity
  8
Contornos
 62
256
370
-1
 48
1.0
  6
BYLAYER
100
AcDbLine
 10
18.4191117515846194
 20
33.3891928430190532
 30
0.0
 11
36.6366867140802555
 21
38.7854843923935704
 31
0.0
  0
LINE
  5
80
100
AcDbEntity
  8
Contornos
 62
256
370
-1
 48
1.0
  6
BYLAYER
100
AcDbLine
 10
-185.7118561694286996
 20
-339.0962648464309268
 30
0.0
 11
-73.5257950113791878
 21
39.6375304265053643
 31
0.0
  0
LINE
  5
81
100
AcDbEntity
  8
Contornos
 62
256
370
-1
 48
1.0
  6
BYLAYER
100
AcDbLine
 10
151.6992070767341829
 20
-339.0962648464309268
 30
0.0
 11
39.5131459186848275
 21
39.6375304265054211
 31
0.0
  0
DIMENSION
  5
82
100
AcDbEntity
  8
Cotas
 62
256
370
-1
 48
1.0
  6
BYLAYER
100
AcDbDimension
 10
-89.1384802314010756
 20
44.2622184812708781
 30
0.0
 11
-147.0292978133037138
 21
-144.5721503838774424
 31
0.0
 70
1
 71
8
 72
2
 74
0
 75
0
 41
1.0
 42
0.0
  1

  3
Standard
100
AcDbAlignedDimension
 13
-73.525795011379202
 23
39.6375304265053856
 33
0.0
 14
-185.7118561694286996
 24
-339.0962648464309268
 34
0.0
1001
ACAD
1000
DSTYLE
1002
{
1070
144
1040
1.0
1070
40
1040
1.0
1002
}
  0
DIMENSION
  5
83
100
AcDbEntity
  8
Cotas
 62
256
370
-1
 48
1.0
  6
BYLAYER
100
AcDbDimension
 10
58.8148010318219008
 20
45.3549411461203817
 30
0.0
 11
116.7056186137244111
 21
-143.4794277190279104
 31
0.0
 70
1
 71
8
 72
2
 74
0
 75
0
 41
1.0
 42
0.0
  1

  3
Standard
100
AcDbAlignedDimension
 13
39.5131459186848915
 23
39.6375304265053714
 33
0.0
 14
151.6992070767341829
 24
-339.0962648464309268
 34
0.0
1001
ACAD
1000
DSTYLE
1002
{
1070
144
1040
1.0
1070
40
1040
1.0
1002
}
  0
LINE
  5
84
100
AcDbEntity
  8
Contornos
 62
256
370
-1
 48
1.0
  6
BYLAYER
100
AcDbLine
 10
-189.5063245463472299
 20
-338.917077260755093
 30
0.0
 11
-154.5063245463472015
 21
-338.9354578698525415
 31
0.0
  0
LINE
  5
85
100
AcDbEntity
  8
Contornos
 62
256
370
-1
 48
1.0
  6
BYLAYER
100
AcDbLine
 10
120.4936754536527985
 20
-339.0798769413325999
 30
0.0
 11
155.4936754536527701
 21
-339.0982575504300485
 31
0.0
  0
LINE
  5
86
100
AcDbEntity
  8
Ejes
 62
256
370
-1
 48
1.0
  6
BYLAYER
100
AcDbLine
 10
-173.7266094835762829
 20
-342.6464566552299402
 30
0.0
 11
-61.5405483255267711
 21
36.0873386177063296
 31
0.0
  0
LINE
  5
87
100
AcDbEntity
  8
Ejes
 62
256
370
-1
 48
1.0
  6
BYLAYER
100
AcDbLine
 10
139.7139603908817662
 20
-342.6464566552299402
 30
0.0
 11
27.5278992328324108
 21
36.0873386177063935
 31
0.0
  0
LINE
  5
88
100
AcDbEntity
  8
Contornos
 62
256
370
-1
 48
1.0
  6
BYLAYER
100
AcDbLine
 10
120.4936375320846196
 20
-372.7798815685344493
 30
0.0
 11
155.4936754536528269
 21
-372.7982621975468192
 31
0.0
  0
LINE
  5
89
100
AcDbEntity
  8
Contornos
 62
256
370
-1
 48
1.0
  6
BYLAYER
100
AcDbLine
 10
-189.5063245463472299
 20
-372.6170819078718637
 30
0.0
 11
-154.5063245463472015
 21
-372.6354625169693122
 31
0.0
  0
LINE
  5
8A
100
AcDbEntity
  8
Contornos
 62
256
370
-1
 48
1.0
  6
BYLAYER
100
AcDbLine
 10
-189.5063245463472015
 20
-338.917077260755093
 30
0.0
 11
-189.5063245463472015
 21
-372.6170819078718068
 31
0.0
  0
LINE
  5
8B
100
AcDbEntity
  8
Contornos
 62
256
370
-1
 48
1.0
  6
BYLAYER
100
AcDbLine
 10
155.4936754536527985
 20
-339.0982575504299916
 30
0.0
 11
155.4936754536527985
 21
-372.7076720527093698
 31
0.0
  0
LINE
  5
8C
100
AcDbEntity
  8
Contornos
 62
256
370
-1
 48
1.0
  6
BYLAYER
100
AcDbLine
 10
120.4936754536527985
 20
-339.0798769413325431
 30
0.0
 11
120.4936754536527985
 21
-372.7076720527093698
 31
0.0
  0
LINE
  5
8D
100
AcDbEntity
  8
Contornos
 62
256
370
-1
 48
1.0
  6
BYLAYER
100
AcDbLine
 10
-154.5063245463472015
 20
-338.9354578698525984
 30
0.0
 11
-154.5063245463472015
 21
-372.6354625169693122
 31
0.0
  0
LINE
  5
8E
100
AcDbEntity
  8
Contornos
 62
256
370
-1
 48
1.0
  6
BYLAYER
100
AcDbLine
 10
-189.5049591298596567
 20
-370.0170822664030652
 30
0.0
 11
-154.5063245463472015
 21
-370.0354621584380652
 31
0.0
  0
LINE
  5
8F
100
AcDbEntity
  8
Contornos
 62
256
370
-1
 48
1.0
  6
BYLAYER
100
AcDbLine
 10
120.4936754536527985
 20
-370.1798812299180668
 30
0.0
 11
155.4936754536527985
 21
-370.1982618390155721
 31
0.0
  0
LINE
  5
90
100
AcDbEntity
  8
Contornos
 62
256
370
-1
 48
1.0
  6
BYLAYER
100
AcDbLine
 10
-189.5063245463472299
 20
-341.5170776192863968
 30
0.0
 11
-154.5063245463472015
 21
-341.5354582283838454
 31
0.0
  0
LINE
  5
91
100
AcDbEntity
  8
Contornos
 62
256
370
-1
 48
1.0
  6
BYLAYER
100
AcDbLine
 10
120.4936754536527985
 20
-341.6798772998638469
 30
0.0
 11
155.4936754536527985
 21
-341.6982579089612955
 31
0.0
  0
LINE
  5
92
100
AcDbEntity
  8
Ejes
 62
256
370
-1
 48
1.0
  6
BYLAYER
100
AcDbLine
 10
-189.5151734955070424
 20
-355.7670749371970373
 30
0.0
 11
280.4936754536528269
 21
-356.0139049064793539
 31
0.0
  0
DIMENSION
  5
93
100
AcDbEntity
  8
Cotas
 62
256
370
-1
 48
1.0
  6
BYLAYER
100
AcDbDimension
 10
-189.5063245463472015
 20
-387.0734727825811206
 30
0.0
 11
-172.0063245463472015
 21
-385.1984727825811206
 31
0.0
 70
0
 71
8
 72
2
 74
0
 75
0
 41
1.0
 42
0.0
  1

  3
Standard
100
AcDbAlignedDimension
 13
-189.5063245463472015
 23
-372.6170819078718637
 33
0.0
 14
-154.5063245463472015
 24
-372.6354625169693122
 34
0.0
 50
0.0
100
AcDbRotatedDimension
1001
ACAD
1000
DSTYLE
1002
{
1070
144
1040
1.0
1070
40
1040
1.0
1002
}
  0
DIMENSION
  5
94
100
AcDbEntity
  8
Cotas
 62
256
370
-1
 48
1.0
  6
BYLAYER
100
AcDbDimension
 10
-172.0063245463472015
 20
-400.0
 30
0.0
 11
-180.7563245463472015
 21
-398.125
 31
0.0
 70
0
 71
8
 72
2
 74
0
 75
0
 41
1.0
 42
0.0
  1

  3
Standard
100
AcDbAlignedDimension
 13
-172.0063245463472015
 23
-372.6262722124206448
 33
0.0
 14
-189.5063245463472015
 24
-372.6170819078718637
 34
0.0
 50
0.0
100
AcDbRotatedDimension
1001
ACAD
1000
DSTYLE
1002
{
1070
144
1040
1.0
1070
40
1040
1.0
1002
}
  0
DIMENSION
  5
95
100
AcDbEntity
  8
Cotas
 62
256
370
-1
 48
1.0
  6
BYLAYER
100
AcDbDimension
 10
-172.0063245463472015
 20
-400.0
 30
0.0
 11
-17.0063245463472015
 21
-398.125
 31
0.0
 70
0
 71
8
 72
2
 74
0
 75
0
 41
1.0
 42
0.0
  1

  3
Standard
100
AcDbAlignedDimension
 13
-172.0063245463472015
 23
-370.0262718538893409
 33
0.0
 14
137.9936754536527985
 24
-370.189071534466791
 34
0.0
 50
0.0
100
AcDbRotatedDimension
1001
ACAD
1000
DSTYLE
1002
{
1070
144
1040
1.0
1070
40
1040
1.0
1002
}
  0
DIMENSION
  5
96
100
AcDbEntity
  8
Cotas
 62
256
370
-1
 48
1.0
  6
BYLAYER
100
AcDbDimension
 10
-189.5063245463471731
 20
-409.8577667590849387
 30
0.0
 11
-17.0063245463471873
 21
-407.9827667590849387
 31
0.0
 70
0
 71
8
 72
2
 74
0
 75
0
 41
1.0
 42
0.0
  1

  3
Standard
100
AcDbAlignedDimension
 13
-189.5063245463472015
 23
-372.6170819078718637
 33
0.0
 14
155.4936754536528269
 24
-372.7982621975468192
 34
0.0
 50
0.0
100
AcDbRotatedDimension
1001
ACAD
1000
DSTYLE
1002
{
1070
144
1040
1.0
1070
40
1040
1.0
1002
}
  0
LEADER
  5
97
100
AcDbEntity
  8
Cotas
 62
256
370
-1
 48
1.0
  6
BYLAYER
100
AcDbLeader
  3
Standard
 71
1
 72
0
 73
3
 74
0
 75
0
 40
1.0
 41
10.0
 76
2
 10
-120.0
 20
-210.0
 10
-100.754592927271915
 20
-225.015210035712073
1001
ACAD
1000
DSTYLE
1002
{
1070
40
1040
1.0
1002
}
  0
MTEXT
  5
98
100
AcDbEntity
  8
Cotas
 62
256
370
-1
 48
1.0
  6
BYLAYER
100
AcDbMText
 10
-100.754592927271915
 20
-225.015210035712073
 30
0.0
 40
2.5
 41
0.0
 71
1
 72
1
  1
%%c25 Tube
  7
textstyle1
 50
0.0
 73
2
 44
1.0
  0
LINE
  5
99
100
AcDbEntity
  8
Contornos
 62
256
370
-1
 48
1.0
  6
BYLAYER
100
AcDbLine
 10
255.4936754536527985
 20
39.5241060354755191
 30
0.0
 11
255.4936754536527985
 21
-344.7081147660477995
 31
0.0
  0
LINE
  5
9A
100
AcDbEntity
  8
Ejes
 62
256
370
-1
 48
1.0
  6
BYLAYER
100
AcDbLine
 10
267.9936754536528269
 20
91.2496590398731797
 30
0.0
 11
267.9936754536528269
 21
-372.8507782235396917
 31
0.0
  0
LINE
  5
9B
100
AcDbEntity
  8
Contornos
 62
256
370
-1
 48
1.0
  6
BYLAYER
100
AcDbLine
 10
280.4936754536528269
 20
39.5109770289773365
 30
0.0
 11
280.4936754536528269
 21
-344.7081147660477995
 31
0.0
  0
CIRCLE
  5
9C
100
AcDbEntity
  8
Contornos
 62
256
370
-1
 48
1.0
  6
BYLAYER
100
AcDbCircle
 10
267.9936754536528269
 20
-356.0073404032302733
 30
0.0
 40
16.8500000000000085
  0
LINE
  5
9D
100
AcDbEntity
  8
Contornos
 62
256
370
-1
 48
1.0
  6
BYLAYER
100
AcDbLine
 10
120.4936754524325551
 20
-339.0798792648909625
 30
0.0
 11
155.4936754524325409
 21
-339.0982598739884111
 31
0.0
  0
LINE
  5
9E
100
AcDbEntity
  8
Ejes
 62
256
370
-1
 48
1.0
  6
BYLAYER
100
AcDbLine
 10
-189.3576254392492615
 20
-55.7671163061832544
 30
0.0
 11
305.743674316005638
 21
-56.0271238334531176
 31
0.0
  0
LINE
  5
9F
100
AcDbEntity
  8
Contornos
 62
256
370
-1
 48
1.0
  6
BYLAYER
100
AcDbLine
 10
255.4936754536527701
 20
39.5241060354755263
 30
0.0
 11
280.701389346178189
 21
39.510867945895555
 31
0.0
  0
CIRCLE
  5
A0
100
AcDbEntity
  8
Contornos
 62
256
370
-1
 48
1.0
  6
BYLAYER
100
AcDbCircle
 10
267.9936754536528269
 20
-356.0073404032302733
 30
0.0
 40
14.2500019650271952
  0
DIMENSION
  5
A1
100
AcDbEntity
  8
Cotas
 62
256
370
-1
 48
1.0
  6
BYLAYER
100
AcDbDimension
 10
281.5795485824492062
 20
-365.9746144201442917
 30
0.0
 11
269.102793482241168
 21
-354.4955592687202852
 31
0.0
 70
3
 71
8
 72
2
 74
0
 75
0
 41
1.0
 42
0.0
  1

  3
Standard
100
AcDbDiametricDimension
 15
254.4078023248564762
 25
-346.0400663863162549
 35
0.0
 40
0.0
1001
ACAD
1000
DSTYLE
1002
{
1070
144
1040
1.0
1070
40
1040
1.0
1002
}
  0
DIMENSION
  5
A2
100
AcDbEntity
  8
Cotas
 62
256
370
-1
 48
1.0
  6
BYLAYER
100
AcDbDimension
 10
253.7364275694469882
 20
-369.8011376555844549
 30
0.0
 11
248.3216529149446217
 21
-367.92329377256317
 31
0.0
 70
1
 71
8
 72
2
 74
0
 75
0
 41
1.0
 42
0.0
  1

  3
Standard
100
AcDbAlignedDimension
 13
253.7436754536521448
 23
-355.9998568695262975
 33
0.0
 14
251.1436777772107121
 24
-355.998491454070745
 34
0.0
1001
ACAD
1000
DSTYLE
1002
{
1070
144
1040
1.0
1070
40
1040
1.0
1002
}
  0
LEADER
  5
A3
100
AcDbEntity
  8
Cotas
 62
256
370
-1
 48
1.0
  6
BYLAYER
100
AcDbLeader
  3
Standard
 71
1
 72
0
 73
3
 74
0
 75
0
 40
1.0
 41
10.0
 76
3
 10
282.6898501806379045
 20
-347.7644678217860132
 10
292.0335992779162666
 20
-329.7867030832074988
 10
316.7832076655639639
 20
-329.7716801560741828
1001
ACAD
1000
DSTYLE
1002
{
1070
40
1040
1.0
1002
}
  0
MTEXT
  5
A4
100
AcDbEntity
  8
Cotas
 62
256
370
-1
 48
1.0
  6
BYLAYER
100
AcDbMText
 10
292.0543509801965456
 20
-325.0838749162707018
 30
0.0
 40
2.5
 41
0.0
 71
1
 72
1
  1
%%c33.7 x 2.6 Tube
  7
textstyle0
 50
0.0
 73
2
 44
1.0
  0
LINE
  5
A5
100
AcDbEntity
  8
0
 62
256
370
-1
 48
1.0
  6
BYLAYER
100
AcDbLine
 10
120.4936754536527985
 20
-344.63721813095475
 30
0.0
 11
155.4936754536528269
 21
-344.6555987400521985
 31
0.0
  0
LINE
  5
A6
100
AcDbEntity
  8
0
 62
256
370
-1
 48
1.0
  6
BYLAYER
100
AcDbLine
 10
-189.5092430402860373
 20
-344.4744169177002391
 30
0.0
 11
-154.5063245463472015
 21
-344.4927990594747484
 31
0.0
  0
LINE
  5
A7
100
AcDbEntity
  8
Ocultas
 62
256
370
-1
 48
1.0
  6
BYLAYER
100
AcDbLine
 10
265.4936754536528838
 20
-156.4522220505526491
 30
0.0
 11
270.4936754536528269
 21
-156.4548478518522927
 31
0.0
  0
LINE
  5
A8
100
AcDbEntity
  8
Ocultas
 62
256
370
-1
 48
1.0
  6
BYLAYER
100
AcDbLine
 10
265.4936754536528269
 20
39.5188544328763101
 30
0.0
 11
265.4936754536528269
 21
-156.4522220505526207
 31
0.0
  0
LINE
  5
A9
100
AcDbEntity
  8
Ocultas
 62
256
370
-1
 48
1.0
  6
BYLAYER
100
AcDbLine
 10
270.4936754536528269
 20
39.5162286315766238
 30
0.0
 11
270.4936754536528269
 21
-156.4548478518523211
 31
0.0
  0
LINE
  5
AA
100
AcDbEntity
  8
Contornos
 62
256
370
-1
 48
1.0
  6
BYLAYER
100
AcDbLine
 10
265.4936754536528269
 20
39.5188544328762532
 30
0.0
 11
274.2456007038372263
 21
89.1534889909003283
 31
0.0
  0
LINE
  5
AB
100
AcDbEntity
  8
Contornos
 62
256
370
-1
 48
1.0
  6
BYLAYER
100
AcDbLine
 10
270.4177142187138543
 20
38.6506135445415993
 30
0.0
 11
279.1696394688982537
 21
88.2852481025656459
 31
0.0
  0
LINE
  5
AC
100
AcDbEntity
  8
Contornos
 62
256
370
-1
 48
1.0
  6
BYLAYER
100
AcDbLine
 10
274.2456007038372263
 20
89.1534889909003141
 30
0.0
 11
279.1696394688982537
 21
88.2852481025656459
 31
0.0
  0
LINE
  5
AD
100
AcDbEntity
  8
Ejes
 62
256
370
-1
 48
1.0
  6
BYLAYER
100
AcDbLine
 10
297.4936754536528269
 20
39.5162286315766167
 30
0.0
 11
297.4936754536528269
 21
-156.4548478518523211
 31
0.0
  0
LINE
  5
AE
100
AcDbEntity
  8
Contornos
 62
256
370
-1
 48
1.0
  6
BYLAYER
100
AcDbLine
 10
280.4936754536528269
 20
-36.013860779554598
 30
0.0
 11
297.5041786574033722
 21
-36.0227940198385781
 31
0.0
  0
LINE
  5
AF
100
AcDbEntity
  8
Ocultas
 62
256
370
-1
 48
1.0
  6
BYLAYER
100
AcDbLine
 10
270.4936754536527701
 20
-36.0086091769553249
 30
0.0
 11
280.4936754536528269
 21
-36.013860779554598
 31
0.0
  0
LINE
  5
B0
100
AcDbEntity
  8
Contornos
 62
256
370
-1
 48
1.0
  6
BYLAYER
100
AcDbLine
 10
-37.0063245463472015
 20
-35.847122397027654
 30
0.0
 11
2.9936754536527843
 21
-35.8681288074247462
 31
0.0
  0
LINE
  5
B1
100
AcDbEntity
  8
Contornos
 62
256
370
-1
 48
1.0
  6
BYLAYER
100
AcDbLine
 10
280.4936754536527133
 20
-76.0138662954201862
 30
0.0
 11
297.4831722499022817
 21
-76.022788503973743
 31
0.0
  0
LINE
  5
B2
100
AcDbEntity
  8
Contornos
 62
256
370
-1
 48
1.0
  6
BYLAYER
100
AcDbLine
 10
280.4936754536528269
 20
-76.0138662954201862
 30
0.0
 11
280.4936754536527133
 21
-76.0138662954201862
 31
0.0
  0
LINE
  5
B3
100
AcDbEntity
  8
Ocultas
 62
256
370
-1
 48
1.0
  6
BYLAYER
100
AcDbLine
 10
270.4936754536527701
 20
-76.0086146928209132
 30
0.0
 11
280.4936754536528269
 21
-76.0138662954201862
 31
0.0
  0
LINE
  5
B4
100
AcDbEntity
  8
Contornos
 62
256
370
-1
 48
1.0
  6
BYLAYER
100
AcDbLine
 10
-37.0063245463472015
 20
-75.8471279128932423
 30
0.0
 11
2.9936754536527985
 21
-75.8681343232903345
 31
0.0
  0
ARC
  5
B5
100
AcDbEntity
  8
Contornos
 62
256
370
-1
 48
1.0
  6
BYLAYER
100
AcDbCircle
 10
297.4936754536528269
 20
-56.0227912619061641
 30
0.0
 40
20.0000027579327977
100
AcDbArc
 50
269.9398210725229319
 51
90.0
  0
CIRCLE
  5
B6
100
AcDbEntity
  8
Contornos
 62
256
370
-1
 48
1.0
  6
BYLAYER
100
AcDbCircle
 10
297.4936754536528269
 20
-56.0227912619061641
 30
0.0
 40
6.25
  0
LINE
  5
B7
100
AcDbEntity
  8
Contornos
 62
256
370
-1
 48
1.0
  6
BYLAYER
100
AcDbLine
 10
2.9936754536527879
 20
-35.8681288074247533
 30
0.0
 11
2.9936754536527879
 21
-75.8681343232903487
 31
0.0
  0
LINE
  5
B8
100
AcDbEntity
  8
Contornos
 62
256
370
-1
 48
1.0
  6
BYLAYER
100
AcDbLine
 10
-37.0063245463472157
 20
-35.8471223970276469
 30
0.0
 11
-37.0063245463472157
 21
-75.8471279128932565
 31
0.0
  0
LINE
  5
B9
100
AcDbEntity
  8
Contornos
 62
256
370
-1
 48
1.0
  6
BYLAYER
100
AcDbLine
 10
-34.0063245463472157
 20
-35.8486978778074388
 30
0.0
 11
-34.0063245463472157
 21
-75.8487033936730199
 31
0.0
  0
LINE
  5
BA
100
AcDbEntity
  8
Contornos
 62
256
370
-1
 48
1.0
  6
BYLAYER
100
AcDbLine
 10
-0.0063245463472121
 20
-35.8665533266449472
 30
0.0
 11
-0.0063245463472121
 21
-75.8665588425105852
 31
0.0
  0
LINE
  5
BB
100
AcDbEntity
  8
Ocultas
 62
256
370
-1
 48
1.0
  6
BYLAYER
100
AcDbLine
 10
-37.0135454993812019
 20
-49.5971213628030441
 30
0.0
 11
-34.0063245463472157
 21
-49.5987006357403999
 31
0.0
  0
LINE
  5
BC
100
AcDbEntity
  8
Ocultas
 62
256
370
-1
 48
1.0
  6
BYLAYER
100
AcDbLine
 10
-0.0063245463472157
 20
-49.6165560845779297
 30
0.0
 11
2.9864545006187861
 21
-49.6181277732001362
 31
0.0
  0
LINE
  5
BD
100
AcDbEntity
  8
Ocultas
 62
256
370
-1
 48
1.0
  6
BYLAYER
100
AcDbLine
 10
-0.0063245463472015
 20
-62.1165560845776668
 30
0.0
 11
2.9798899991772934
 21
-62.1181243257845921
 31
0.0
  0
LINE
  5
BE
100
AcDbEntity
  8
Ocultas
 62
256
370
-1
 48
1.0
  6
BYLAYER
100
AcDbLine
 10
-37.0201100008226902
 20
-62.0971179153874999
 30
0.0
 11
-34.0063245463472157
 21
-62.098700635740137
 31
0.0
  0
ENDSEC
  0
SECTION
  2
OBJECTS
  0
DICTIONARY
  5
C
100
AcDbDictionary
280
0
281
1
  3
ACAD_GROUP
350
D
  3
ACAD_LAYOUT
350
1A
  3
ACAD_MLINESTYLE
350
17
  3
ACAD_PLOTSETTINGS
350
19
  3
ACAD_PLOTSTYLENAME
350
E
  3
AcDbVariableDictionary
350
BF
  3
QCAD_OBJECTS
350
C0
  0
DICTIONARY
  5
D
100
AcDbDictionary
280
0
281
1
  0
ACDBDICTIONARYWDFLT
  5
E
100
AcDbDictionary
281
1
  3
Normal
350
F
100
AcDbDictionaryWithDefault
340
F
  0
ACDBPLACEHOLDER
  5
F
  0
DICTIONARY
  5
17
100
AcDbDictionary
280
0
281
1
  3
Standard
350
18
  0
MLINESTYLE
  5
18
100
AcDbMlineStyle
  2
STANDARD
 70
0
  3

 62
256
 51
90.0
 52
90.0
 71
2
 49
0.5
 62
256
  6
BYLAYER
 49
-0.5
 62
256
  6
BYLAYER
  0
DICTIONARY
  5
19
100
AcDbDictionary
280
0
281
1
  0
DICTIONARY
  5
1A
100
AcDbDictionary
281
1
  3
Layout1
350
1E
  3
Layout2
350
26
  3
Model
350
22
  0
LAYOUT
  5
1E
100
AcDbPlotSettings
  1

  2
none_device
  4

  6

 40
0.0
 41
0.0
 42
0.0
 43
0.0
 44
0.0
 45
0.0
 46
0.0
 47
0.0
 48
0.0
 49
0.0
140
0.0
141
0.0
142
1.0
143
1.0
 70
688
 72
0
 73
0
 74
5
  7

 75
16
147
1.0
148
0.0
149
0.0
100
AcDbLayout
  1
Layout1
 70
1
 71
1
 10
0.0
 20
0.0
 11
420.0
 21
297.0
 12
0.0
 22
0.0
 32
0.0
 14
100000000000000000000.0
 24
100000000000000000000.0
 34
100000000000000000000.0
 15
-100000000000000000000.0
 25
-100000000000000000000.0
 35
-100000000000000000000.0
146
0.0
 13
0.0
 23
0.0
 33
0.0
 16
1.0
 26
0.0
 36
0.0
 17
0.0
 27
1.0
 37
0.0
 76
0
330
1B
  0
LAYOUT
  5
22
100
AcDbPlotSettings
  1

  2
none_device
  4

  6

 40
0.0
 41
0.0
 42
0.0
 43
0.0
 44
0.0
 45
0.0
 46
0.0
 47
0.0
 48
0.0
 49
0.0
140
0.0
141
0.0
142
1.0
143
1.0
 70
1712
 72
0
 73
0
 74
0
  7

 75
0
147
1.0
148
0.0
149
0.0
100
AcDbLayout
  1
Model
 70
1
 71
0
 10
0.0
 20
0.0
 11
12.0
 21
9.0
 12
0.0
 22
0.0
 32
0.0
 14
0.0
 24
0.0
 34
0.0
 15
0.0
 25
0.0
 35
0.0
146
0.0
 13
0.0
 23
0.0
 33
0.0
 16
1.0
 26
0.0
 36
0.0
 17
0.0
 27
1.0
 37
0.0
 76
0
330
1F
  0
LAYOUT
  5
26
100
AcDbPlotSettings
  1

  2
none_device
  4

  6

 40
0.0
 41
0.0
 42
0.0
 43
0.0
 44
0.0
 45
0.0
 46
0.0
 47
0.0
 48
0.0
 49
0.0
140
0.0
141
0.0
142
1.0
143
1.0
 70
688
 72
0
 73
0
 74
5
  7

 75
16
147
1.0
148
0.0
149
0.0
100
AcDbLayout
  1
Layout2
 70
1
 71
2
 10
0.0
 20
0.0
 11
12.0
 21
9.0
 12
0.0
 22
0.0
 32
0.0
 14
0.0
 24
0.0
 34
0.0
 15
0.0
 25
0.0
 35
0.0
146
0.0
 13
0.0
 23
0.0
 33
0.0
 16
1.0
 26
0.0
 36
0.0
 17
0.0
 27
1.0
 37
0.0
 76
0
330
23
  0
DICTIONARY
  5
BF
100
AcDbDictionary
281
1
  3
DIMASSOC
350
C2
  3
HIDETEXT
350
C1
  0
DICTIONARYVAR
  5
C1
100
DictionaryVariables
280
0
  1
2
  0
DICTIONARYVAR
  5
C2
100
DictionaryVariables
280
0
  1
1
  0
DICTIONARY
  5
C0
100
AcDbDictionary
281
1
  3
ColorSettings/BackgroundColor
350
C3
  3
ColorSettings/ColorMode
350
C4
  3
DimensionSettings/AngularFormat
350
C5
  3
DimensionSettings/AngularPrecision
350
C6
  3
DimensionSettings/DecimalPoint
350
C7
  3
DimensionSettings/DimensionFont
350
C8
  3
DimensionSettings/DimensionTextColor
350
C9
  3
DimensionSettings/KeepProportions
350
CA
  3
DimensionSettings/LinearFormat
350
CB
  3
DimensionSettings/LinearPrecision
350
CC
  3
Grid/DisplayGrid00
350
CD
  3
Grid/DisplayGrid01
350
CE
  3
Grid/DisplayGrid02
350
CF
  3
Grid/DisplayGrid03
350
D0
  3
Grid/GridSpacingX00
350
D1
  3
Grid/GridSpacingX01
350
D2
  3
Grid/GridSpacingX02
350
D3
  3
Grid/GridSpacingX03
350
D4
  3
Grid/GridSpacingY00
350
D5
  3
Grid/GridSpacingY01
350
D6
  3
Grid/GridSpacingY02
350
D7
  3
Grid/GridSpacingY03
350
D8
  3
Grid/IsometricGrid00
350
D9
  3
Grid/IsometricGrid01
350
DA
  3
Grid/IsometricGrid02
350
DB
  3
Grid/IsometricGrid03
350
DC
  3
Grid/IsometricProjection00
350
DD
  3
Grid/IsometricProjection01
350
DE
  3
Grid/IsometricProjection02
350
DF
  3
Grid/IsometricProjection03
350
E0
  3
Grid/MetaGridSpacingX00
350
E1
  3
Grid/MetaGridSpacingX01
350
E2
  3
Grid/MetaGridSpacingX02
350
E3
  3
Grid/MetaGridSpacingX03
350
E4
  3
Grid/MetaGridSpacingY00
350
E5
  3
Grid/MetaGridSpacingY01
350
E6
  3
Grid/MetaGridSpacingY02
350
E7
  3
Grid/MetaGridSpacingY03
350
E8
  3
LinetypeSettings/PSLTSCALE
350
E9
  3
MultiPageSettings/Columns
350
EA
  3
MultiPageSettings/GlueMarginsBottom
350
EB
  3
MultiPageSettings/GlueMarginsLeft
350
EC
  3
MultiPageSettings/GlueMarginsRight
350
ED
  3
MultiPageSettings/GlueMarginsTop
350
EE
  3
MultiPageSettings/PrintCropMarks
350
EF
  3
MultiPageSettings/Rows
350
F0
  3
PageSettings/OffsetX
350
F1
  3
PageSettings/OffsetY
350
F2
  3
PageSettings/PageOrientation
350
F3
  3
PageSettings/PaperHeight
350
F4
  3
PageSettings/PaperWidth
350
F5
  3
PageSettings/Scale
350
F6
  3
PageSettings/ShowPaperBorders
350
F7
  3
PageTagSettings/EnablePageTags
350
F8
  3
PageTagSettings/TagAlignment
350
F9
  3
PageTagSettings/TagFont
350
FA
  3
PageTagSettings/TagPosition
350
FB
  3
QCADVersion
350
FC
  3
UnitSettings/PaperUnit
350
FD
  3
ViewportCenter
350
FE
  3
ViewportHeight
350
FF
  3
ViewportWidth
350
100
  0
XRECORD
  5
C3
330
C0
100
AcDbXrecord
280
1
1000
Blanca
  0
XRECORD
  5
C4
330
C0
100
AcDbXrecord
280
1
1000
FullColor
  0
XRECORD
  5
C5
330
C0
100
AcDbXrecord
280
1
 90
0
  0
XRECORD
  5
C6
330
C0
100
AcDbXrecord
280
1
 90
2
  0
XRECORD
  5
C7
330
C0
100
AcDbXrecord
280
1
 90
46
  0
XRECORD
  5
C8
330
C0
100
AcDbXrecord
280
1
1000
Academy Engraved LET
  0
XRECORD
  5
C9
330
C0
100
AcDbXrecord
280
1
1000
Por Bloque
  0
XRECORD
  5
CA
330
C0
100
AcDbXrecord
280
1
290
1
  0
XRECORD
  5
CB
330
C0
100
AcDbXrecord
280
1
 90
2
  0
XRECORD
  5
CC
330
C0
100
AcDbXrecord
280
1
 90
4
  0
XRECORD
  5
CD
330
C0
100
AcDbXrecord
280
1
290
1
  0
XRECORD
  5
CE
330
C0
100
AcDbXrecord
280
1
290
1
  0
XRECORD
  5
CF
330
C0
100
AcDbXrecord
280
1
290
1
  0
XRECORD
  5
D0
330
C0
100
AcDbXrecord
280
1
290
1
  0
XRECORD
  5
D1
330
C0
100
AcDbXrecord
280
1
1000
auto
  0
XRECORD
  5
D2
330
C0
100
AcDbXrecord
280
1
1000
auto
  0
XRECORD
  5
D3
330
C0
100
AcDbXrecord
280
1
1000
auto
  0
XRECORD
  5
D4
330
C0
100
AcDbXrecord
280
1
1000
auto
  0
XRECORD
  5
D5
330
C0
100
AcDbXrecord
280
1
1000
auto
  0
XRECORD
  5
D6
330
C0
100
AcDbXrecord
280
1
1000
auto
  0
XRECORD
  5
D7
330
C0
100
AcDbXrecord
280
1
1000
auto
  0
XRECORD
  5
D8
330
C0
100
AcDbXrecord
280
1
1000
auto
  0
XRECORD
  5
D9
330
C0
100
AcDbXrecord
280
1
290
0
  0
XRECORD
  5
DA
330
C0
100
AcDbXrecord
280
1
290
0
  0
XRECORD
  5
DB
330
C0
100
AcDbXrecord
280
1
290
0
  0
XRECORD
  5
DC
330
C0
100
AcDbXrecord
280
1
290
0
  0
XRECORD
  5
DD
330
C0
100
AcDbXrecord
280
1
 90
65537
  0
XRECORD
  5
DE
330
C0
100
AcDbXrecord
280
1
 90
65537
  0
XRECORD
  5
DF
330
C0
100
AcDbXrecord
280
1
 90
65537
  0
XRECORD
  5
E0
330
C0
100
AcDbXrecord
280
1
 90
65537
  0
XRECORD
  5
E1
330
C0
100
AcDbXrecord
280
1
1000
auto
  0
XRECORD
  5
E2
330
C0
100
AcDbXrecord
280
1
1000
auto
  0
XRECORD
  5
E3
330
C0
100
AcDbXrecord
280
1
1000
auto
  0
XRECORD
  5
E4
330
C0
100
AcDbXrecord
280
1
1000
auto
  0
XRECORD
  5
E5
330
C0
100
AcDbXrecord
280
1
1000
auto
  0
XRECORD
  5
E6
330
C0
100
AcDbXrecord
280
1
1000
auto
  0
XRECORD
  5
E7
330
C0
100
AcDbXrecord
280
1
1000
auto
  0
XRECORD
  5
E8
330
C0
100
AcDbXrecord
280
1
1000
auto
  0
XRECORD
  5
E9
330
C0
100
AcDbXrecord
280
1
290
0
  0
XRECORD
  5
EA
330
C0
100
AcDbXrecord
280
1
 90
1
  0
XRECORD
  5
EB
330
C0
100
AcDbXrecord
280
1
 40
10.0
  0
XRECORD
  5
EC
330
C0
100
AcDbXrecord
280
1
 40
10.0
  0
XRECORD
  5
ED
330
C0
100
AcDbXrecord
280
1
 40
10.0
  0
XRECORD
  5
EE
330
C0
100
AcDbXrecord
280
1
 40
10.0
  0
XRECORD
  5
EF
330
C0
100
AcDbXrecord
280
1
290
0
  0
XRECORD
  5
F0
330
C0
100
AcDbXrecord
280
1
 90
1
  0
XRECORD
  5
F1
330
C0
100
AcDbXrecord
280
1
 40
0.0
  0
XRECORD
  5
F2
330
C0
100
AcDbXrecord
280
1
 40
0.0
  0
XRECORD
  5
F3
330
C0
100
AcDbXrecord
280
1
1000
Portrait
  0
XRECORD
  5
F4
330
C0
100
AcDbXrecord
280
1
 40
279.3999999999999773
  0
XRECORD
  5
F5
330
C0
100
AcDbXrecord
280
1
 40
215.9000000000000057
  0
XRECORD
  5
F6
330
C0
100
AcDbXrecord
280
1
1000
1:1
  0
XRECORD
  5
F7
330
C0
100
AcDbXrecord
280
1
290
1
  0
XRECORD
  5
F8
330
C0
100
AcDbXrecord
280
1
290
0
  0
XRECORD
  5
F9
330
C0
100
AcDbXrecord
280
1
1000
Inside
  0
XRECORD
  5
FA
330
C0
100
AcDbXrecord
280
1
1000
Arial,10,-1,5,50,0,0,0,0,0
  0
XRECORD
  5
FB
330
C0
100
AcDbXrecord
280
1
1000
TopLeft
  0
XRECORD
  5
FC
330
C0
100
AcDbXrecord
280
1
1000
3.29.6
  0
XRECORD
  5
FD
330
C0
100
AcDbXrecord
280
1
 90
4
  0
XRECORD
  5
FF
330
C0
100
AcDbXrecord
280
1
 40
525.1472053113233187
  0
XRECORD
  5
100
330
C0
100
AcDbXrecord
280
1
 40
955.7857454902182326
  0
ENDSEC
  0
EOF
